<?xml version="1.0" ?><!DOCTYPE svg  PUBLIC '-//W3C//DTD SVG 1.1//EN'  'http://www.w3.org/Graphics/SVG/1.1/DTD/svg11.dtd'><svg enable-background="new 0 0 32 32" height="32px" id="Layer_1" version="1.1" viewBox="0 0 32 32" width="32px" xml:space="preserve" xmlns="http://www.w3.org/2000/svg" xmlns:xlink="http://www.w3.org/1999/xlink"><linearGradient gradientUnits="userSpaceOnUse" id="SVGID_1_" x1="4" x2="28" y1="13" y2="13"><stop offset="0" style="stop-color:#FACE2E"/><stop offset="1" style="stop-color:#FD9F27"/></linearGradient><path d="M4,20h24V6H4V20z M6.293,17.293l6-6c0.268-0.268,0.664-0.362,1.023-0.242l5.413,1.805l5.563-5.563  c0.391-0.391,1.023-0.391,1.414,0s0.391,1.023,0,1.414l-6,6c-0.268,0.268-0.665,0.362-1.023,0.242l-5.413-1.805l-5.563,5.563  C7.512,18.902,7.256,19,7,19s-0.512-0.098-0.707-0.293C5.902,18.316,5.902,17.684,6.293,17.293z" fill="url(#SVGID_1_)"/><path d="M7,19c0.256,0,0.512-0.098,0.707-0.293l5.563-5.563l5.413,1.805c0.358,0.121,0.756,0.026,1.023-0.242l6-6  c0.391-0.391,0.391-1.023,0-1.414s-1.023-0.391-1.414,0l-5.563,5.563l-5.413-1.805c-0.359-0.12-0.756-0.026-1.023,0.242l-6,6  c-0.391,0.391-0.391,1.023,0,1.414C6.488,18.902,6.744,19,7,19z"/><path d="M29,4H3C2.447,4,2,4.448,2,5v16c0,0.552,0.447,1,1,1h10.132l-2.964,4.445c-0.307,0.459-0.183,1.081,0.277,1.387  C10.616,27.946,10.809,28,10.999,28c0.323,0,0.641-0.156,0.833-0.445L15.535,22h0.93l3.703,5.555C20.36,27.844,20.678,28,21.001,28  c0.19,0,0.383-0.054,0.554-0.168c0.46-0.306,0.584-0.927,0.277-1.387L18.868,22H29c0.553,0,1-0.448,1-1V5C30,4.448,29.553,4,29,4z   M28,20H4V6h24V20z"/></svg>